<svg width="156" height="35" viewBox="0 0 156 35" fill="none" xmlns="http://www.w3.org/2000/svg">
<rect width="35" height="35" rx="4" fill="#4B2CCD"/>
<g clip-path="url(#clip0_9933_48083)">
<path d="M6.12036 13.0607L17.4404 8.93982" stroke="#E5E5E5" stroke-width="2" stroke-linecap="round"/>
<path d="M17.4293 8.93982L30.0488 13.6374" stroke="#E5E5E5" stroke-width="2" stroke-linecap="round"/>
<path d="M30.0812 13.6385L30.0105 23.9759" stroke="#E5E5E5" stroke-width="2" stroke-linecap="round"/>
<path d="M6.12036 13.0602L17.4115 17.2633" stroke="#E5E5E5" stroke-width="2" stroke-linecap="round"/>
<path d="M17.4293 17.2701L21.4463 15.8795" stroke="#E5E5E5" stroke-width="2" stroke-linecap="round"/>
<path d="M8.09949 14.7952L8.10041 20.5783" stroke="#E5E5E5" stroke-width="2" stroke-linecap="round"/>
<path d="M8.31152 20.5784L17.4166 23.9678" stroke="#E5E5E5" stroke-width="2" stroke-linecap="round"/>
<path d="M17.4293 23.981L26.0989 20.8674" stroke="#E5E5E5" stroke-width="2" stroke-linecap="round"/>
<path d="M26.123 16.241V20.5783" stroke="#E5E5E5" stroke-width="2" stroke-linecap="round"/>
</g>
<path d="M50.4102 21.7148V24H43.252V21.7148H50.4102ZM44.1992 9.78125V24H41.2695V9.78125H44.1992ZM55.2051 9.78125V24H52.2852V9.78125H55.2051ZM60.8789 9.78125V24H57.9492V9.78125H60.8789ZM66.543 15.8555V18.1406H60.0781V15.8555H66.543ZM67.2266 9.78125V12.0762H60.0781V9.78125H67.2266ZM78.4668 21.7148V24H70.8984V21.7148H78.4668ZM71.8555 9.78125V24H68.9258V9.78125H71.8555ZM77.4805 15.5723V17.7988H70.8984V15.5723H77.4805ZM78.457 9.78125V12.0762H70.8984V9.78125H78.457ZM88.418 19.2832H91.3379C91.2793 20.2402 91.0156 21.0898 90.5469 21.832C90.0846 22.5742 89.4368 23.1536 88.6035 23.5703C87.7767 23.987 86.7806 24.1953 85.6152 24.1953C84.7038 24.1953 83.8867 24.0391 83.1641 23.7266C82.4414 23.4076 81.8229 22.9518 81.3086 22.3594C80.8008 21.7669 80.4134 21.0508 80.1465 20.2109C79.8796 19.3711 79.7461 18.4303 79.7461 17.3887V16.4023C79.7461 15.3607 79.8828 14.4199 80.1562 13.5801C80.4362 12.7337 80.8333 12.0143 81.3477 11.4219C81.8685 10.8294 82.4902 10.3737 83.2129 10.0547C83.9355 9.73568 84.7428 9.57617 85.6348 9.57617C86.8197 9.57617 87.819 9.79102 88.6328 10.2207C89.4531 10.6504 90.0879 11.2428 90.5371 11.998C90.9928 12.7533 91.2663 13.6126 91.3574 14.5762H88.4277C88.3952 14.0033 88.2812 13.5182 88.0859 13.1211C87.8906 12.7174 87.5944 12.4147 87.1973 12.2129C86.8066 12.0046 86.2858 11.9004 85.6348 11.9004C85.1465 11.9004 84.7201 11.9915 84.3555 12.1738C83.9909 12.3561 83.6849 12.6328 83.4375 13.0039C83.1901 13.375 83.0046 13.8438 82.8809 14.4102C82.7637 14.9701 82.7051 15.6276 82.7051 16.3828V17.3887C82.7051 18.1243 82.7604 18.7721 82.8711 19.332C82.9818 19.8854 83.151 20.3542 83.3789 20.7383C83.6133 21.1159 83.9128 21.4023 84.2773 21.5977C84.6484 21.7865 85.0944 21.8809 85.6152 21.8809C86.2272 21.8809 86.7318 21.7832 87.1289 21.5879C87.526 21.3926 87.8288 21.1029 88.0371 20.7188C88.252 20.3346 88.3789 19.8561 88.418 19.2832ZM104.941 16.5586V17.2324C104.941 18.3132 104.795 19.2832 104.502 20.1426C104.209 21.002 103.796 21.7344 103.262 22.3398C102.728 22.9388 102.09 23.3978 101.348 23.7168C100.612 24.0358 99.7949 24.1953 98.8965 24.1953C98.0046 24.1953 97.1875 24.0358 96.4453 23.7168C95.7096 23.3978 95.0716 22.9388 94.5312 22.3398C93.9909 21.7344 93.571 21.002 93.2715 20.1426C92.9785 19.2832 92.832 18.3132 92.832 17.2324V16.5586C92.832 15.4714 92.9785 14.5013 93.2715 13.6484C93.5645 12.7891 93.9779 12.0566 94.5117 11.4512C95.0521 10.8457 95.6901 10.3835 96.4258 10.0645C97.168 9.74544 97.985 9.58594 98.877 9.58594C99.7754 9.58594 100.592 9.74544 101.328 10.0645C102.07 10.3835 102.708 10.8457 103.242 11.4512C103.783 12.0566 104.199 12.7891 104.492 13.6484C104.792 14.5013 104.941 15.4714 104.941 16.5586ZM101.982 17.2324V16.5391C101.982 15.7839 101.914 15.1198 101.777 14.5469C101.641 13.974 101.439 13.4922 101.172 13.1016C100.905 12.7109 100.579 12.418 100.195 12.2227C99.8112 12.0208 99.3717 11.9199 98.877 11.9199C98.3822 11.9199 97.9427 12.0208 97.5586 12.2227C97.181 12.418 96.8587 12.7109 96.5918 13.1016C96.3314 13.4922 96.1328 13.974 95.9961 14.5469C95.8594 15.1198 95.791 15.7839 95.791 16.5391V17.2324C95.791 17.9811 95.8594 18.6452 95.9961 19.2246C96.1328 19.7975 96.3346 20.2826 96.6016 20.6797C96.8685 21.0703 97.194 21.3665 97.5781 21.5684C97.9622 21.7702 98.4017 21.8711 98.8965 21.8711C99.3913 21.8711 99.8307 21.7702 100.215 21.5684C100.599 21.3665 100.921 21.0703 101.182 20.6797C101.442 20.2826 101.641 19.7975 101.777 19.2246C101.914 18.6452 101.982 17.9811 101.982 17.2324ZM114.902 9.78125H117.822V19.1758C117.822 20.2695 117.588 21.1908 117.119 21.9395C116.657 22.6882 116.016 23.2513 115.195 23.6289C114.382 24.0065 113.444 24.1953 112.383 24.1953C111.322 24.1953 110.378 24.0065 109.551 23.6289C108.73 23.2513 108.086 22.6882 107.617 21.9395C107.155 21.1908 106.924 20.2695 106.924 19.1758V9.78125H109.854V19.1758C109.854 19.8138 109.954 20.3346 110.156 20.7383C110.358 21.1419 110.648 21.4382 111.025 21.627C111.41 21.8158 111.862 21.9102 112.383 21.9102C112.917 21.9102 113.369 21.8158 113.74 21.627C114.118 21.4382 114.404 21.1419 114.6 20.7383C114.801 20.3346 114.902 19.8138 114.902 19.1758V9.78125ZM120.234 9.78125H125.537C126.624 9.78125 127.559 9.94401 128.34 10.2695C129.128 10.5951 129.733 11.0768 130.156 11.7148C130.579 12.3529 130.791 13.1374 130.791 14.0684C130.791 14.8301 130.661 15.4844 130.4 16.0312C130.146 16.5716 129.785 17.0241 129.316 17.3887C128.854 17.7467 128.311 18.0332 127.686 18.248L126.758 18.7363H122.148L122.129 16.4512H125.557C126.071 16.4512 126.497 16.36 126.836 16.1777C127.174 15.9954 127.428 15.7415 127.598 15.416C127.773 15.0905 127.861 14.7129 127.861 14.2832C127.861 13.8275 127.777 13.4336 127.607 13.1016C127.438 12.7695 127.181 12.5156 126.836 12.3398C126.491 12.1641 126.058 12.0762 125.537 12.0762H123.164V24H120.234V9.78125ZM128.184 24L124.941 17.6621L128.037 17.6426L131.318 23.8633V24H128.184ZM140.449 20.2793C140.449 20.0254 140.41 19.7975 140.332 19.5957C140.26 19.3874 140.124 19.1986 139.922 19.0293C139.72 18.8535 139.437 18.681 139.072 18.5117C138.708 18.3424 138.236 18.1667 137.656 17.9844C137.012 17.776 136.4 17.5417 135.82 17.2812C135.247 17.0208 134.74 16.7181 134.297 16.373C133.861 16.0215 133.516 15.6146 133.262 15.1523C133.014 14.6901 132.891 14.153 132.891 13.541C132.891 12.9486 133.021 12.4115 133.281 11.9297C133.542 11.4414 133.906 11.0247 134.375 10.6797C134.844 10.3281 135.397 10.0579 136.035 9.86914C136.68 9.68034 137.386 9.58594 138.154 9.58594C139.202 9.58594 140.117 9.77474 140.898 10.1523C141.68 10.5299 142.285 11.0475 142.715 11.7051C143.151 12.3626 143.369 13.1146 143.369 13.9609H140.459C140.459 13.5443 140.371 13.1797 140.195 12.8672C140.026 12.5482 139.766 12.2975 139.414 12.1152C139.069 11.9329 138.633 11.8418 138.105 11.8418C137.598 11.8418 137.174 11.9199 136.836 12.0762C136.497 12.2259 136.243 12.431 136.074 12.6914C135.905 12.9453 135.82 13.2318 135.82 13.5508C135.82 13.7917 135.879 14.0098 135.996 14.2051C136.12 14.4004 136.302 14.5827 136.543 14.752C136.784 14.9212 137.08 15.0807 137.432 15.2305C137.783 15.3802 138.19 15.5267 138.652 15.6699C139.427 15.9043 140.107 16.168 140.693 16.4609C141.286 16.7539 141.781 17.0827 142.178 17.4473C142.575 17.8118 142.874 18.2253 143.076 18.6875C143.278 19.1497 143.379 19.6738 143.379 20.2598C143.379 20.8783 143.258 21.4316 143.018 21.9199C142.777 22.4082 142.428 22.8216 141.973 23.1602C141.517 23.4987 140.973 23.7559 140.342 23.9316C139.71 24.1074 139.004 24.1953 138.223 24.1953C137.52 24.1953 136.826 24.1042 136.143 23.9219C135.459 23.7331 134.837 23.4499 134.277 23.0723C133.724 22.6947 133.281 22.2129 132.949 21.627C132.617 21.041 132.451 20.3477 132.451 19.5469H135.391C135.391 19.9896 135.459 20.3639 135.596 20.6699C135.732 20.9759 135.924 21.2233 136.172 21.4121C136.426 21.6009 136.725 21.7376 137.07 21.8223C137.422 21.9069 137.806 21.9492 138.223 21.9492C138.73 21.9492 139.147 21.8776 139.473 21.7344C139.805 21.5911 140.049 21.3926 140.205 21.1387C140.368 20.8848 140.449 20.5983 140.449 20.2793ZM154.912 21.7148V24H147.344V21.7148H154.912ZM148.301 9.78125V24H145.371V9.78125H148.301ZM153.926 15.5723V17.7988H147.344V15.5723H153.926ZM154.902 9.78125V12.0762H147.344V9.78125H154.902Z" fill="#4B2CCD"/>
<defs>
<clipPath id="clip0_9933_48083">
<rect width="27" height="18" fill="white" transform="translate(4 8)"/>
</clipPath>
</defs>
</svg>
